<svg version="1.1" id="Layer_1" xmlns="http://www.w3.org/2000/svg" xmlns:xlink="http://www.w3.org/1999/xlink" x="0px" y="0px"
	 width="100%" viewBox="0 0 600 600" enable-background="new 0 0 600 600" xml:space="preserve">
<path fill="#000000" opacity="1.000000" stroke="none" 
	d="
M118.000000,601.000000 
	C79.008240,601.000000 40.016487,601.000000 1.018547,601.000000 
	C1.012364,401.050507 1.012364,201.101028 1.012364,1.075772 
	C200.907181,1.075772 400.814392,1.075772 600.860840,1.075772 
	C600.860840,200.999939 600.860840,400.999939 600.860840,601.000000 
	C561.246826,601.000000 521.588440,601.000000 481.465088,600.537476 
	C480.986023,596.749268 481.539886,593.303345 480.865234,590.117554 
	C476.644165,570.186279 472.361298,550.262817 467.670746,530.438049 
	C464.476044,516.935547 460.676575,503.572479 456.976440,490.194366 
	C453.554871,477.823090 447.193878,467.339691 434.989624,462.109650 
	C417.816650,454.750183 400.334473,448.112335 382.611206,441.088196 
	C378.183960,439.329559 374.130005,437.648621 370.130127,435.627747 
	C367.453491,429.554993 364.722809,423.822083 362.380127,418.053894 
	C367.414337,415.951691 372.029633,413.811249 376.715393,411.838104 
	C381.538361,409.807220 386.282410,407.242157 391.328400,406.173767 
	C397.899811,404.782410 404.817139,405.077423 411.435608,403.842560 
	C419.973877,402.249573 427.832764,399.053345 433.121338,391.414886 
	C436.856232,386.020508 436.084076,379.991608 435.931702,374.098389 
	C435.771118,367.887146 437.437042,362.437897 441.027802,357.420349 
	C443.520111,353.937683 446.044708,350.423157 448.023590,346.644653 
	C449.737030,343.373047 451.142242,339.803589 451.911407,336.200958 
	C453.771362,327.489288 448.758698,321.400909 443.204834,315.729767 
	C433.681396,306.005127 432.629181,300.657196 437.933990,288.185486 
	C441.770813,279.165100 441.994324,270.026184 439.332855,260.591064 
	C434.931244,244.986862 423.761261,234.057968 413.812378,222.156952 
	C405.578522,212.307495 397.496735,202.227402 390.419098,191.539886 
	C380.558411,176.649811 370.773834,162.082672 353.026062,155.495224 
	C336.273315,149.277084 319.587128,148.750671 302.846344,155.527039 
	C301.534790,156.057938 299.592133,156.440186 298.488861,155.857529 
	C287.213745,149.902985 274.923004,149.861771 263.045532,151.354996 
	C242.801178,153.900085 227.266632,164.674606 216.296783,182.071426 
	C210.326355,191.539810 204.300888,201.046021 197.426208,209.852890 
	C189.302185,220.260254 179.634323,229.480820 171.721191,240.030060 
	C160.662598,254.772614 154.745575,270.908569 162.914871,289.441223 
	C165.790298,295.964355 168.246948,302.851624 162.776749,309.468781 
	C160.460022,312.271301 158.230576,315.170959 155.687134,317.756653 
	C146.346039,327.252930 145.422043,336.284088 152.830414,347.559204 
	C155.904861,352.238342 159.309235,356.736938 161.978699,361.636292 
	C164.955536,367.099792 166.853653,372.953918 163.004913,378.964264 
	C159.955536,383.726288 155.450775,384.809998 150.151581,383.577606 
	C152.423584,401.176605 170.634766,410.985565 185.450714,407.337860 
	C198.499588,404.125214 211.002243,404.456970 222.918060,412.191620 
	C227.594818,415.227295 233.615417,416.192688 238.905167,418.428253 
	C238.183182,419.687683 237.424744,420.554871 237.003342,421.562927 
	C235.005539,426.342072 233.099701,431.159668 230.989288,436.311646 
	C226.529556,438.400269 222.241638,440.140778 217.560379,441.933441 
	C213.075485,443.339142 208.901093,444.486237 204.909363,446.088409 
	C196.203171,449.582825 187.589920,453.308807 178.560913,456.973206 
	C174.044006,459.011414 169.904861,461.016571 165.325958,462.993652 
	C161.636658,462.977966 158.387085,462.990326 155.080338,462.560913 
	C154.943985,460.522797 154.864807,458.926514 154.787399,457.365845 
	C150.339203,457.365845 146.293869,457.365845 142.188980,457.365845 
	C142.188980,461.860321 142.188980,465.993530 142.122620,470.529419 
	C142.107239,472.559998 142.158234,474.187988 142.125778,476.257812 
	C142.087326,478.499268 142.132309,480.298828 142.104706,482.510315 
	C142.078781,484.588013 142.125458,486.253723 142.103394,488.382263 
	C142.002548,492.868683 141.970413,496.892273 141.592712,501.108215 
	C138.978180,510.566864 136.619614,519.812378 134.462097,529.104553 
	C131.534592,541.713013 128.761032,554.357239 125.590637,567.204895 
	C122.839867,578.615784 120.419930,589.807922 118.000000,601.000000 
z"/>
<path fill="#CEA1B3" opacity="1.000000" stroke="none" 
	d="
M382.984497,441.165894 
	C400.334473,448.112335 417.816650,454.750183 434.989624,462.109650 
	C447.193878,467.339691 453.554871,477.823090 456.976440,490.194366 
	C460.676575,503.572479 464.476044,516.935547 467.670746,530.438049 
	C472.361298,550.262817 476.644165,570.186279 480.865234,590.117554 
	C481.539886,593.303345 480.986023,596.749268 481.000061,600.537476 
	C466.645782,601.000000 452.291534,601.000000 437.458069,600.531433 
	C436.976379,575.788086 437.000641,551.513184 436.929291,527.238586 
	C436.922363,524.874817 436.325592,522.512756 435.823395,518.838928 
	C434.462921,533.482483 433.777374,546.719666 431.871063,559.778687 
	C429.852386,573.607422 426.672638,587.266724 424.000000,601.000000 
	C398.645782,601.000000 373.291534,601.000000 347.173340,600.704468 
	C339.216034,600.408936 332.022644,600.408936 323.690094,600.408936 
	C327.263062,595.780823 330.034973,592.505066 332.454559,588.987000 
	C336.749817,582.741577 340.831421,576.349304 345.267059,569.877197 
	C345.645325,569.168640 345.758942,568.601318 346.223572,567.986084 
	C350.657745,561.758972 354.980164,555.721619 358.752594,549.358215 
	C362.111084,543.693176 364.860626,537.667236 368.057068,531.522827 
	C372.957733,528.000061 374.929047,523.535950 374.523010,517.885254 
	C378.545135,517.007324 379.828125,514.538879 379.724884,510.934326 
	C379.630402,507.635071 379.806000,504.328033 380.174774,500.821472 
	C382.321472,489.464783 385.065094,478.362091 385.695435,467.140686 
	C386.177460,458.560272 383.986511,449.829681 382.984497,441.165894 
z"/>
<path fill="#FFE2C0" opacity="1.000000" stroke="none" 
	d="
M118.468651,601.000000 
	C120.419930,589.807922 122.839867,578.615784 125.891129,567.031982 
	C131.954010,555.359497 137.385574,544.078796 142.904755,532.453735 
	C147.049194,523.319336 151.106018,514.529358 155.429016,505.570557 
	C158.642273,502.864136 161.249435,499.651703 164.619644,497.954376 
	C169.159302,495.668121 174.286911,494.549316 179.565247,492.953796 
	C184.831146,492.285980 189.675552,491.309937 194.562714,490.992737 
	C198.370102,490.745605 201.351974,492.328156 201.018677,497.018066 
	C194.632660,498.703369 188.644974,500.241760 182.657272,501.780151 
	C182.757584,502.189331 182.857880,502.598541 182.958191,503.007751 
	C189.353394,501.644989 195.748596,500.282257 202.344391,498.904175 
	C202.544983,498.888855 202.946350,498.860840 203.299164,498.942444 
	C206.890457,500.701141 211.351196,501.560699 208.590881,507.000671 
	C202.673172,508.881226 197.144638,510.750977 191.616089,512.620728 
	C191.785034,513.083252 191.953964,513.545837 192.122894,514.008423 
	C197.450470,512.315857 202.778046,510.623260 208.485672,508.954468 
	C215.977951,510.893860 216.168823,511.137329 215.512634,517.960938 
	C209.725708,520.261414 204.321808,522.546204 198.917908,524.830994 
	C199.126984,525.250122 199.336060,525.669250 199.545135,526.088379 
	C205.070465,524.022827 210.595795,521.957214 216.468201,519.960205 
	C220.821274,522.477844 220.618607,525.505371 217.773224,528.614380 
	C216.000732,530.551086 213.901794,532.189026 211.600708,533.974121 
	C210.496750,534.654358 209.741425,535.321594 208.874054,536.207214 
	C208.553864,536.694763 208.285797,536.874573 207.608261,536.975037 
	C206.500320,537.649719 205.741943,538.314331 204.991791,538.989502 
	C205.000000,539.000000 204.982925,538.982788 204.624176,538.988770 
	C203.529465,539.698669 202.793503,540.402588 202.030609,541.069702 
	C202.003693,541.032898 202.089447,541.063904 201.721954,541.043335 
	C200.588974,541.715698 199.823456,542.408691 199.031219,543.063538 
	C199.004501,543.025391 199.089203,543.064087 198.707794,543.041931 
	C195.726074,544.619934 192.721298,545.810120 190.603561,547.899414 
	C184.938690,553.488342 179.984238,559.820801 174.144897,565.204102 
	C164.334274,574.248535 154.512222,583.532959 139.874176,585.698730 
	C142.094421,588.700684 144.025864,591.312134 145.851837,594.302917 
	C145.497559,596.788147 145.248779,598.894104 145.000000,601.000000 
	C136.312439,601.000000 127.624870,601.000000 118.468651,601.000000 
M196.824265,527.240601 
	C196.880219,527.409302 196.936188,527.578064 196.992142,527.746765 
	C197.047134,527.576294 197.102127,527.405823 196.824265,527.240601 
M186.630722,515.475159 
	C186.842209,515.529114 187.053696,515.583130 187.265182,515.637085 
	C187.129639,515.505005 186.994080,515.372986 186.630722,515.475159 
M180.376984,503.525635 
	C180.163528,503.471527 179.950073,503.417419 179.736618,503.363342 
	C179.873444,503.496216 180.010269,503.629089 180.376984,503.525635 
M189.482361,514.592041 
	C189.482361,514.592041 189.410172,514.476013 189.482361,514.592041 
z"/>
<path fill="#CDA1B3" opacity="1.000000" stroke="none" 
	d="
M207.957794,536.965027 
	C208.285797,536.874573 208.553864,536.694763 209.196106,536.184082 
	C210.403259,535.282043 211.176315,534.621582 211.949371,533.961060 
	C213.901794,532.189026 216.000732,530.551086 217.773224,528.614380 
	C220.618607,525.505371 220.821274,522.477844 216.430542,519.637207 
	C215.995758,518.812195 215.945694,518.378723 215.895645,517.945251 
	C216.168823,511.137329 215.977951,510.893860 208.568985,508.702271 
	C208.508179,507.947510 208.744110,507.468719 208.980057,506.989899 
	C211.351196,501.560699 206.890457,500.701141 203.348495,498.492126 
	C203.039246,493.632416 203.033447,489.304596 203.243256,484.705933 
	C205.667191,482.136749 205.576385,479.966034 203.105026,477.546356 
	C203.120178,476.147217 203.127869,475.129639 203.419830,473.910278 
	C206.020981,471.219025 204.965820,469.118164 203.008316,466.666260 
	C203.070786,463.310211 203.070786,460.416351 203.070786,457.110748 
	C194.560455,457.110748 186.833618,457.110748 179.064499,457.068359 
	C179.022217,457.025970 178.938690,456.940155 178.938690,456.940155 
	C187.589920,453.308807 196.203171,449.582825 204.909363,446.088409 
	C208.901093,444.486237 213.075485,443.339142 217.573212,442.363983 
	C215.264969,458.104034 214.975113,473.473755 218.017929,488.819183 
	C218.248749,489.983154 219.416428,490.961304 220.246796,492.341034 
	C220.278763,493.086273 220.212570,493.516357 219.957123,494.045593 
	C219.689178,494.261597 219.521225,494.453461 219.546127,494.483124 
	C219.720795,494.690735 219.935287,494.864807 220.239044,495.506073 
	C220.330444,501.029907 220.319351,506.097290 220.309372,511.164642 
	C220.302002,514.912598 221.746872,517.462158 225.870575,518.273926 
	C224.819611,525.447754 228.803223,529.143616 233.973541,532.508057 
	C235.642548,536.075867 237.081726,539.408081 238.985550,542.449585 
	C247.588562,556.193176 256.211761,569.927063 265.064606,583.510071 
	C268.614960,588.957397 272.774261,594.007751 276.788300,599.416504 
	C271.699585,600.000916 267.349792,600.500488 263.000000,601.000000 
	C242.979111,601.000000 222.958206,601.000000 202.650742,600.617432 
	C202.609253,599.464905 203.068909,598.694824 203.068008,597.925232 
	C203.046005,578.982788 202.975143,560.040466 203.177094,540.945984 
	C203.955093,540.190186 204.469009,539.586487 204.982925,538.982788 
	C204.982925,538.982788 205.000000,539.000000 205.314117,538.970337 
	C206.404755,538.282166 207.181274,537.623596 207.957794,536.965027 
z"/>
<path fill="#FEFEFE" opacity="1.000000" stroke="none" 
	d="
M309.000000,601.000000 
	C304.643097,601.000000 300.286194,601.000000 295.449249,600.531555 
	C294.965881,566.427917 294.915405,532.792480 295.034302,499.157745 
	C295.045868,495.896515 294.498871,493.670563 290.694092,493.010834 
	C289.945343,493.004181 289.518005,493.003052 288.830536,492.727051 
	C284.344299,491.887573 286.139801,495.209625 286.128143,496.742920 
	C285.969940,517.518494 285.984375,538.295410 285.736237,559.053223 
	C285.516388,559.034424 285.076385,559.000916 285.048157,558.582642 
	C283.985657,551.427490 282.951385,544.690491 281.946228,537.491455 
	C281.975372,521.502930 281.975372,505.976501 281.975372,490.235413 
	C278.743439,490.235413 276.286224,490.235413 273.445099,490.208252 
	C268.139069,491.429504 263.216949,492.677856 258.239807,493.464294 
	C258.177094,487.213776 258.297424,481.421051 258.107666,475.638489 
	C258.013000,472.753845 257.351044,469.887848 256.962219,466.546570 
	C256.995056,462.138550 257.243652,458.176147 256.887085,454.269012 
	C256.779205,453.086945 254.995117,452.057861 253.973541,450.724976 
	C253.968262,450.491180 253.968369,450.022827 254.390533,450.013489 
	C255.832748,448.927185 257.627258,447.921539 257.734192,446.760437 
	C258.125519,442.512207 257.879730,438.208679 258.081818,433.935760 
	C258.110138,433.336975 259.296967,432.792999 259.990326,432.561035 
	C273.431305,452.982330 286.829529,473.066284 300.774780,493.970215 
	C314.656616,472.973938 327.838257,453.036743 341.327148,432.951660 
	C342.127716,433.172058 343.015320,433.503998 343.053223,433.914398 
	C343.432281,438.019592 343.932190,442.141846 343.867004,446.250885 
	C343.815704,449.488464 345.189545,450.366730 348.022461,450.247620 
	C348.015869,450.472687 348.001587,450.922729 347.581635,450.956940 
	C344.347290,450.772247 343.958771,452.441254 344.002045,454.753601 
	C344.076355,458.725464 343.941772,462.701263 343.539368,466.900177 
	C342.735382,468.798126 341.941254,470.462585 341.898804,472.146027 
	C341.724182,479.071320 341.777954,486.002319 341.343811,492.956940 
	C338.516693,492.580353 336.065277,492.300781 333.675903,491.751465 
	C327.864288,490.415253 327.399109,490.733612 326.648865,496.717285 
	C326.065643,494.326660 325.752777,492.216919 325.383362,489.725861 
	C324.235931,490.377869 323.499695,490.595490 323.494965,490.827942 
	C323.325073,499.194855 323.223419,507.563171 323.086884,516.359131 
	C322.400269,521.181030 321.739044,525.575134 321.052795,530.313110 
	C321.045807,531.116394 321.063873,531.575867 320.989929,532.410217 
	C320.280334,535.160522 319.662750,537.535950 319.047089,539.448120 
	C319.049011,523.109314 319.049011,507.233673 319.049011,491.346893 
	C310.179993,491.572021 309.002411,492.711090 309.002197,500.261688 
	C309.001373,533.841125 309.000732,567.420593 309.000000,601.000000 
M306.031769,530.404541 
	C307.313873,525.982361 305.950073,522.683899 302.441467,522.320251 
	C299.157837,521.979919 296.720703,523.666504 296.533264,526.946411 
	C296.438934,528.596313 297.678253,531.443298 298.883026,531.793518 
	C300.868805,532.370911 303.315918,531.361572 306.031769,530.404541 
M305.021637,591.567932 
	C305.458374,589.457703 306.946808,586.474426 306.087921,585.439697 
	C304.765991,583.847290 301.313965,582.404053 299.728058,583.097778 
	C298.090210,583.814270 296.407990,587.457581 296.865723,589.291077 
	C297.753632,592.847717 300.861786,593.894226 305.021637,591.567932 
M304.389374,563.079163 
	C301.366302,561.428955 298.424011,562.050659 297.271423,565.031860 
	C296.570557,566.844666 297.175110,570.335938 298.526123,571.435364 
	C299.854645,572.516479 303.461060,572.366821 305.012146,571.267578 
	C307.909363,569.214172 307.580200,566.132812 304.389374,563.079163 
M305.567078,551.022278 
	C305.775879,549.014954 306.884430,546.037781 305.995819,545.213379 
	C304.413513,543.745483 301.358734,542.580017 299.398010,543.098145 
	C296.248138,543.930359 295.369263,547.127563 297.008331,550.008789 
	C298.888000,553.312988 301.795227,553.899170 305.567078,551.022278 
M300.832886,502.301239 
	C297.689606,503.144012 295.691284,505.330048 296.552002,508.386566 
	C297.051666,510.161072 299.374115,512.405640 301.070068,512.582642 
	C302.759369,512.758972 305.653656,511.018677 306.327423,509.409973 
	C308.041290,505.317841 305.634766,502.976654 300.832886,502.301239 
z"/>
<path fill="#DDB1C3" opacity="1.000000" stroke="none" 
	d="
M281.917114,537.953552 
	C282.951385,544.690491 283.985657,551.427490 285.012939,558.979065 
	C283.810760,560.428162 282.638397,561.538086 281.415558,561.596741 
	C278.965881,561.714355 276.481537,561.014038 274.024170,561.085571 
	C268.281372,561.252808 262.802277,563.619629 260.129181,567.502441 
	C268.840149,561.996277 277.303711,562.192871 285.966217,564.448425 
	C286.988129,569.915100 287.971771,574.975037 288.971558,580.461670 
	C289.372375,584.207581 289.757050,587.526794 290.157593,591.260559 
	C290.448944,594.783386 290.724487,597.891663 291.000000,601.000000 
	C281.979095,601.000000 272.958221,601.000000 263.468658,601.000000 
	C267.349792,600.500488 271.699585,600.000916 276.788300,599.416504 
	C272.774261,594.007751 268.614960,588.957397 265.064606,583.510071 
	C256.211761,569.927063 247.588562,556.193176 238.985550,542.449585 
	C237.081726,539.408081 235.642548,536.075867 234.377045,532.483948 
	C237.943817,532.048218 241.122955,532.006104 244.587036,532.067871 
	C245.640305,532.330444 246.408646,532.489075 247.245758,533.021545 
	C250.115646,534.134277 252.958099,535.472717 255.695343,535.284119 
	C256.641815,535.218872 257.972839,531.373718 258.023865,529.228821 
	C258.303589,517.465820 258.240295,505.694611 258.294800,493.926239 
	C263.216949,492.677856 268.139069,491.429504 273.485352,490.617920 
	C274.279846,494.719482 274.650208,498.384216 274.562134,502.039001 
	C269.305603,501.801483 264.507538,501.573883 259.709473,501.346313 
	C259.709595,501.728912 259.709686,502.111511 259.709808,502.494080 
	C265.098053,502.993774 270.486298,503.493469 275.919647,504.408112 
	C277.276001,513.513550 278.587250,522.203979 279.487732,530.906555 
	C272.449493,529.320618 265.959656,529.826843 258.391571,532.005798 
	C266.671417,532.005798 273.749603,532.005798 280.875122,532.402954 
	C281.253998,534.517944 281.585571,536.235779 281.917114,537.953552 
z"/>
<path fill="#34D4DE" opacity="1.000000" stroke="none" 
	d="
M202.913010,541.098083 
	C202.975143,560.040466 203.046005,578.982788 203.068008,597.925232 
	C203.068909,598.694824 202.609253,599.464905 202.182083,600.617432 
	C194.979050,601.000000 187.958099,601.000000 180.525162,600.534119 
	C180.025772,589.063904 179.938370,578.059570 179.986816,566.737549 
	C186.444855,558.634644 192.767029,550.849365 199.089203,543.064087 
	C199.089203,543.064087 199.004501,543.025391 199.344727,543.014465 
	C200.486465,542.356995 201.287964,541.710449 202.089447,541.063904 
	C202.089447,541.063904 202.003693,541.032898 202.244537,541.078003 
	C202.485382,541.123169 202.913010,541.098083 202.913010,541.098083 
z"/>
<path fill="#DDB1C3" opacity="1.000000" stroke="none" 
	d="
M345.002380,570.018433 
	C340.831421,576.349304 336.749817,582.741577 332.454559,588.987000 
	C330.034973,592.505066 327.263062,595.780823 323.690094,600.408936 
	C332.022644,600.408936 339.216034,600.408936 346.704712,600.704468 
	C334.979095,601.000000 322.958221,601.000000 310.469177,600.559143 
	C310.689331,594.426025 311.171906,588.699219 312.120453,583.050659 
	C313.197052,576.639404 314.690674,570.298218 316.423431,563.925659 
	C319.753998,563.587769 322.695404,562.811096 325.567108,563.015076 
	C330.081390,563.335815 334.548767,564.317200 339.019135,565.007324 
	C339.002258,564.995789 338.971375,564.969116 339.047302,565.225952 
	C339.423615,565.663574 339.724030,565.844421 340.011993,566.013916 
	C339.999542,566.002563 339.972382,565.982666 340.132629,566.287842 
	C341.536163,567.066833 342.779449,567.540649 344.011658,568.007324 
	C344.000549,568.000183 343.979706,567.984070 344.048767,568.263794 
	C344.412659,569.035217 344.707520,569.526794 345.002380,570.018433 
z"/>
<path fill="#B9D7EF" opacity="1.000000" stroke="none" 
	d="
M316.002991,563.926575 
	C314.690674,570.298218 313.197052,576.639404 312.120453,583.050659 
	C311.171906,588.699219 310.689331,594.426025 310.000488,600.559143 
	C310.000000,601.000000 309.500000,601.000000 309.250000,601.000000 
	C309.000732,567.420593 309.001373,533.841125 309.002197,500.261688 
	C309.002411,492.711090 310.179993,491.572021 319.049011,491.346893 
	C319.049011,507.233673 319.049011,523.109314 319.041931,539.893860 
	C318.039459,547.949402 317.044067,555.096008 316.041229,562.522583 
	C316.023529,563.177185 316.013245,563.551880 316.002991,563.926575 
z"/>
<path fill="#123955" opacity="1.000000" stroke="none" 
	d="
M179.850952,567.055237 
	C179.938370,578.059570 180.025772,589.063904 180.056580,600.534119 
	C171.645767,601.000000 163.291534,601.000000 154.650421,600.617798 
	C154.570496,596.406250 154.777451,592.576904 155.184113,588.497009 
	C163.539536,581.182739 171.695251,574.119019 179.850952,567.055237 
z"/>
<path fill="#C47A96" opacity="1.000000" stroke="none" 
	d="
M424.463196,601.000000 
	C426.672638,587.266724 429.852386,573.607422 431.871063,559.778687 
	C433.777374,546.719666 434.462921,533.482483 435.823395,518.838928 
	C436.325592,522.512756 436.922363,524.874817 436.929291,527.238586 
	C437.000641,551.513184 436.976379,575.788086 436.989380,600.531433 
	C432.975464,601.000000 428.950897,601.000000 424.463196,601.000000 
z"/>
<path fill="#B9D7EF" opacity="1.000000" stroke="none" 
	d="
M291.399994,601.000000 
	C290.724487,597.891663 290.448944,594.783386 290.412415,590.962524 
	C290.745728,588.432922 290.919952,586.615845 290.922546,584.798584 
	C290.966187,554.204468 290.988464,523.610413 291.015472,493.016327 
	C294.498871,493.670563 295.045868,495.896515 295.034302,499.157745 
	C294.915405,532.792480 294.965881,566.427917 294.984619,600.531555 
	C293.933319,601.000000 292.866669,601.000000 291.399994,601.000000 
z"/>
<path fill="#DE421D" opacity="1.000000" stroke="none" 
	d="
M154.984375,588.747498 
	C154.777451,592.576904 154.570496,596.406250 154.181778,600.617798 
	C151.299988,601.000000 148.599976,601.000000 145.449982,601.000000 
	C145.248779,598.894104 145.497559,596.788147 146.162994,594.168396 
	C149.381226,592.018860 152.182800,590.383179 154.984375,588.747498 
z"/>
<path fill="#8C1F26" opacity="1.000000" stroke="none" 
	d="
M239.024017,418.100891 
	C233.615417,416.192688 227.594818,415.227295 222.918060,412.191620 
	C211.002243,404.456970 198.499588,404.125214 185.450714,407.337860 
	C170.634766,410.985565 152.423584,401.176605 150.151581,383.577606 
	C155.450775,384.809998 159.955536,383.726288 163.004913,378.964264 
	C166.853653,372.953918 164.955536,367.099792 161.978699,361.636292 
	C159.309235,356.736938 155.904861,352.238342 152.830414,347.559204 
	C145.422043,336.284088 146.346039,327.252930 155.687134,317.756653 
	C158.230576,315.170959 160.460022,312.271301 162.776749,309.468781 
	C168.246948,302.851624 165.790298,295.964355 162.914871,289.441223 
	C154.745575,270.908569 160.662598,254.772614 171.721191,240.030060 
	C179.634323,229.480820 189.302185,220.260254 197.426208,209.852890 
	C204.300888,201.046021 210.326355,191.539810 216.296783,182.071426 
	C227.266632,164.674606 242.801178,153.900085 263.045532,151.354996 
	C274.923004,149.861771 287.213745,149.902985 298.488861,155.857529 
	C299.592133,156.440186 301.534790,156.057938 302.846344,155.527039 
	C319.587128,148.750671 336.273315,149.277084 353.026062,155.495224 
	C370.773834,162.082672 380.558411,176.649811 390.419098,191.539886 
	C397.496735,202.227402 405.578522,212.307495 413.812378,222.156952 
	C423.761261,234.057968 434.931244,244.986862 439.332855,260.591064 
	C441.994324,270.026184 441.770813,279.165100 437.933990,288.185486 
	C432.629181,300.657196 433.681396,306.005127 443.204834,315.729767 
	C448.758698,321.400909 453.771362,327.489288 451.911407,336.200958 
	C451.142242,339.803589 449.737030,343.373047 448.023590,346.644653 
	C446.044708,350.423157 443.520111,353.937683 441.027802,357.420349 
	C437.437042,362.437897 435.771118,367.887146 435.931702,374.098389 
	C436.084076,379.991608 436.856232,386.020508 433.121338,391.414886 
	C427.832764,399.053345 419.973877,402.249573 411.435608,403.842560 
	C404.817139,405.077423 397.899811,404.782410 391.328400,406.173767 
	C386.282410,407.242157 381.538361,409.807220 376.715393,411.838104 
	C372.029633,413.811249 367.414337,415.951691 362.063599,417.922058 
	C354.962067,411.823151 348.565033,405.820862 341.966064,399.502502 
	C341.218903,398.120728 340.673645,397.054993 340.328796,395.672363 
	C357.936371,379.585999 371.110199,360.859589 379.966858,339.087097 
	C380.334106,338.184296 381.404083,337.325500 382.348663,336.935516 
	C397.367401,330.735168 403.732056,318.692017 404.773834,303.307831 
	C405.552032,291.815277 401.014435,285.267792 391.024292,282.305786 
	C389.952240,277.953339 388.972168,273.613922 387.808594,269.324310 
	C385.301819,260.082886 381.923187,251.486847 374.129211,244.997467 
	C370.681427,242.126740 368.222809,237.805054 366.040955,233.751389 
	C363.898376,229.770599 362.676147,225.294434 360.857697,220.531998 
	C353.891724,229.286041 344.510132,232.594147 334.134399,233.582397 
	C330.173218,233.959656 326.140259,234.044403 322.170837,233.786926 
	C310.687561,233.042084 302.447937,237.639847 297.955566,248.279648 
	C293.290833,259.327698 284.898102,264.219818 273.178772,265.222076 
	C260.871033,266.274628 250.074554,271.086945 241.751190,281.136871 
	C240.647049,282.770874 239.836273,284.243317 238.702805,285.876190 
	C227.433304,300.382660 229.531509,323.994171 243.095276,338.741638 
	C244.206741,340.941284 245.259247,342.832489 246.614471,344.971039 
	C256.161713,360.160858 255.983994,369.427551 246.115341,380.865906 
	C247.391205,382.344391 248.631226,383.894592 249.989517,385.333099 
	C253.365112,388.908142 256.794617,392.432251 260.119049,396.320496 
	C259.635162,397.715057 259.234741,398.765961 258.514557,399.931458 
	C251.804535,406.064392 245.414276,412.082642 239.024017,418.100891 
M210.999359,301.221130 
	C210.023407,297.139923 209.047440,293.058746 208.138153,288.179443 
	C207.816772,286.505219 207.495392,284.830994 207.165070,283.110291 
	C201.393829,284.597168 198.813049,288.333008 197.315125,292.952820 
	C192.542938,307.671173 199.670303,327.413666 213.403549,334.364929 
	C219.007858,337.201660 221.571518,341.108368 224.021286,346.217987 
	C227.618378,353.720673 231.875305,360.907043 236.375137,369.193085 
	C239.713821,362.313477 237.197479,357.903900 234.612015,353.364899 
	C229.293991,344.028656 224.159546,334.587830 218.899414,324.522034 
	C218.523438,324.031403 218.147461,323.540771 217.291214,322.754944 
	C217.102402,322.227509 216.913605,321.700043 217.313995,320.786713 
	C215.253204,314.538391 213.192413,308.290039 210.999359,301.221130 
z"/>
<path fill="#123955" opacity="1.000000" stroke="none" 
	d="
M179.162170,492.929443 
	C174.286911,494.549316 169.159302,495.668121 164.619644,497.954376 
	C161.249435,499.651703 158.642273,502.864136 155.384521,505.123657 
	C154.984573,499.152283 154.895309,493.458954 154.862915,487.379700 
	C154.884827,485.405884 154.849838,483.817993 154.869904,481.761505 
	C154.807175,479.444916 154.689392,477.596893 154.653381,475.429443 
	C154.706589,474.668793 154.677994,474.227600 154.738510,473.350403 
	C154.930923,469.610504 155.034225,466.306580 155.137512,463.002686 
	C158.387085,462.990326 161.636658,462.977966 165.788696,463.130005 
	C170.738403,463.315948 174.785629,463.337463 178.844070,463.726501 
	C178.932358,465.075928 179.009445,466.057831 179.046112,467.476349 
	C179.060837,469.972351 179.115982,472.031677 179.108734,474.472107 
	C179.079590,475.880951 179.112854,476.908691 179.096191,478.378784 
	C179.074860,480.897034 179.103439,482.972900 179.081039,485.485168 
	C179.074081,488.257507 179.118134,490.593475 179.162170,492.929443 
z"/>
<path fill="#DDB1C3" opacity="1.000000" stroke="none" 
	d="
M382.611206,441.088196 
	C383.986511,449.829681 386.177460,458.560272 385.695435,467.140686 
	C385.065094,478.362091 382.321472,489.464783 380.094574,500.358276 
	C379.681305,496.316345 379.533600,492.529907 379.674042,488.754211 
	C379.824036,484.721039 378.239502,482.148926 374.165253,480.829285 
	C373.712311,478.492035 373.308807,476.576813 372.814148,474.227722 
	C373.305603,461.317505 371.682129,449.129150 368.101135,436.924500 
	C368.862366,436.410828 369.469208,436.189240 370.076080,435.967651 
	C374.130005,437.648621 378.183960,439.329559 382.611206,441.088196 
z"/>
<path fill="#FCFCF0" opacity="1.000000" stroke="none" 
	d="
M370.130127,435.627747 
	C369.469208,436.189240 368.862366,436.410828 367.755676,436.900024 
	C365.174438,438.437958 363.093048,439.708252 360.636200,440.960693 
	C358.898621,439.761658 357.335114,438.742584 356.222412,437.360535 
	C354.618011,435.367828 353.340942,433.111603 351.863556,430.622192 
	C348.511688,425.972443 345.220398,421.668396 341.904663,416.924469 
	C341.976135,410.929260 342.072083,405.373932 342.167999,399.818573 
	C348.565033,405.820862 354.962067,411.823151 361.675598,417.957306 
	C364.722809,423.822083 367.453491,429.554993 370.130127,435.627747 
z"/>
<path fill="#DDB1C3" opacity="1.000000" stroke="none" 
	d="
M220.148636,492.025848 
	C219.416428,490.961304 218.248749,489.983154 218.017929,488.819183 
	C214.975113,473.473755 215.264969,458.104034 217.966553,442.311798 
	C222.241638,440.140778 226.529556,438.400269 231.305664,436.365601 
	C232.226028,436.488525 232.658218,436.905579 233.111481,437.696594 
	C229.100693,449.596344 228.138443,461.556885 227.986755,474.028809 
	C227.182312,476.690979 226.484619,478.971680 225.465942,481.327057 
	C219.418854,483.033447 220.710464,487.965454 220.148636,492.025848 
z"/>
<path fill="#FCFCF0" opacity="1.000000" stroke="none" 
	d="
M233.090408,437.322662 
	C232.658218,436.905579 232.226028,436.488525 231.477478,436.017517 
	C233.099701,431.159668 235.005539,426.342072 237.003342,421.562927 
	C237.424744,420.554871 238.183182,419.687683 238.905167,418.428253 
	C245.414276,412.082642 251.804535,406.064392 258.851807,400.209930 
	C259.304077,405.981537 259.099365,411.589355 258.681213,417.440125 
	C255.337250,422.111176 252.206726,426.539276 248.756744,431.108490 
	C247.203522,433.366333 246.203918,435.677399 244.660568,437.537231 
	C243.465408,438.977478 241.590073,439.853333 239.877411,440.672302 
	C237.521942,439.350525 235.306183,438.336578 233.090408,437.322662 
z"/>
<path fill="#DE421D" opacity="1.000000" stroke="none" 
	d="
M154.806030,487.765625 
	C154.895309,493.458954 154.984573,499.152283 155.118347,505.292542 
	C151.106018,514.529358 147.049194,523.319336 142.653091,532.148926 
	C142.188644,521.764282 142.063461,511.340057 141.938278,500.915863 
	C141.970413,496.892273 142.002548,492.868683 142.553558,488.394836 
	C146.983643,487.884888 150.894852,487.825256 154.806030,487.765625 
z"/>
<path fill="#CEA1B3" opacity="1.000000" stroke="none" 
	d="
M141.592712,501.108215 
	C142.063461,511.340057 142.188644,521.764282 142.565491,532.493286 
	C137.385574,544.078796 131.954010,555.359497 126.221954,566.813110 
	C128.761032,554.357239 131.534592,541.713013 134.462097,529.104553 
	C136.619614,519.812378 138.978180,510.566864 141.592712,501.108215 
z"/>
<path fill="#DE421D" opacity="1.000000" stroke="none" 
	d="
M155.080338,462.560913 
	C155.034225,466.306580 154.930923,469.610504 154.545578,473.052490 
	C153.195587,472.125092 152.234207,470.313171 151.038528,470.142487 
	C148.146866,469.729706 145.145889,470.082550 142.188980,470.126770 
	C142.188980,465.993530 142.188980,461.860321 142.188980,457.365845 
	C146.293869,457.365845 150.339203,457.365845 154.787399,457.365845 
	C154.864807,458.926514 154.943985,460.522797 155.080338,462.560913 
z"/>
<path fill="#F98454" opacity="1.000000" stroke="none" 
	d="
M154.862930,487.379700 
	C150.894852,487.825256 146.983643,487.884888 142.622284,487.932007 
	C142.125458,486.253723 142.078781,484.588013 142.554504,482.493164 
	C146.989548,482.119415 150.902191,482.174744 154.814850,482.230103 
	C154.849838,483.817993 154.884827,485.405884 154.862930,487.379700 
z"/>
<path fill="#DE421D" opacity="1.000000" stroke="none" 
	d="
M154.869904,481.761536 
	C150.902191,482.174744 146.989548,482.119415 142.627090,482.081238 
	C142.132309,480.298828 142.087326,478.499268 142.571655,476.284271 
	C146.924515,475.828857 150.748047,475.788879 154.571594,475.748901 
	C154.689392,477.596893 154.807175,479.444916 154.869904,481.761536 
z"/>
<path fill="#F98454" opacity="1.000000" stroke="none" 
	d="
M154.653381,475.429443 
	C150.748047,475.788879 146.924515,475.828857 142.655090,475.842407 
	C142.158234,474.187988 142.107239,472.559998 142.122620,470.529388 
	C145.145889,470.082550 148.146866,469.729706 151.038528,470.142487 
	C152.234207,470.313171 153.195587,472.125092 154.456467,473.488464 
	C154.677994,474.227600 154.706589,474.668793 154.653381,475.429443 
z"/>
<path fill="#CEA1B3" opacity="1.000000" stroke="none" 
	d="
M178.832870,463.358978 
	C174.785629,463.337463 170.738403,463.315948 166.228424,463.158081 
	C169.904861,461.016571 174.044006,459.011414 178.560913,456.973206 
	C178.938690,456.940155 179.022217,457.025970 179.044022,457.508728 
	C178.988174,459.780640 178.910522,461.569794 178.832870,463.358978 
z"/>
<path fill="#DDB1C3" opacity="1.000000" stroke="none" 
	d="
M316.048676,562.242676 
	C317.044067,555.096008 318.039459,547.949402 319.040039,540.357056 
	C319.662750,537.535950 320.280334,535.160522 321.449646,532.400513 
	C327.994171,532.015808 333.986938,532.015808 339.979736,532.015808 
	C339.988708,531.564392 339.997650,531.112976 340.006622,530.661621 
	C333.697021,530.430786 327.387421,530.200012 321.077820,529.969238 
	C321.739044,525.575134 322.400269,521.181030 323.342041,516.080383 
	C326.013031,502.705963 322.587219,503.300018 338.130066,502.939575 
	C339.291748,502.912659 340.452972,502.865723 341.705505,503.299011 
	C341.839172,512.838562 341.736664,521.912415 342.056763,530.971252 
	C342.115143,532.623535 343.731567,535.426453 344.917450,535.588684 
	C347.607849,535.956848 351.442993,537.484558 352.842438,532.785156 
	C353.968079,532.485962 354.835510,532.231201 356.181458,531.966492 
	C360.399628,531.904602 364.139282,531.852600 367.878967,531.800598 
	C364.860626,537.667236 362.111084,543.693176 358.752594,549.358215 
	C354.980164,555.721619 350.657745,561.758972 345.909058,567.983093 
	C344.822266,568.013367 344.401001,567.998718 343.979706,567.984131 
	C343.979706,567.984070 344.000549,568.000183 343.858093,567.696777 
	C342.467896,566.923096 341.220154,566.452881 339.972382,565.982666 
	C339.972382,565.982666 339.999542,566.002563 339.930176,565.761230 
	C339.564362,565.336243 339.267883,565.152649 338.971375,564.969116 
	C338.971375,564.969116 339.002258,564.995789 338.788818,564.732178 
	C331.401276,560.338379 323.805267,560.477783 316.048676,562.242676 
z"/>
<path fill="#FCFCF0" opacity="1.000000" stroke="none" 
	d="
M368.057068,531.522827 
	C364.139282,531.852600 360.399628,531.904602 356.134521,531.500732 
	C355.526855,510.692780 355.444672,490.340637 355.788879,470.018402 
	C359.346954,470.069153 362.478607,470.089996 365.826477,470.382874 
	C368.330200,471.990417 370.617737,473.325989 372.905273,474.661560 
	C373.308807,476.576813 373.712311,478.492035 374.131775,481.281128 
	C374.153839,494.056763 374.160004,505.958557 374.166138,517.860352 
	C374.929047,523.535950 372.957733,528.000061 368.057068,531.522827 
z"/>
<path fill="#312F2F" opacity="1.000000" stroke="none" 
	d="
M374.523010,517.885254 
	C374.160004,505.958557 374.153839,494.056763 374.181152,481.703125 
	C378.239502,482.148926 379.824036,484.721039 379.674042,488.754211 
	C379.533600,492.529907 379.681305,496.316345 379.782379,500.561249 
	C379.806000,504.328033 379.630402,507.635071 379.724884,510.934326 
	C379.828125,514.538879 378.545135,517.007324 374.523010,517.885254 
z"/>
<path fill="#FCFCF0" opacity="1.000000" stroke="none" 
	d="
M344.048767,568.263855 
	C344.401001,567.998718 344.822266,568.013367 345.558044,568.031006 
	C345.758942,568.601318 345.645325,569.168640 345.267059,569.877197 
	C344.707520,569.526794 344.412659,569.035217 344.048767,568.263855 
z"/>
<path fill="#EFCFAF" opacity="1.000000" stroke="none" 
	d="
M155.184097,588.497009 
	C152.182800,590.383179 149.381226,592.018860 146.268463,593.789062 
	C144.025864,591.312134 142.094421,588.700684 139.874176,585.698730 
	C154.512222,583.532959 164.334274,574.248535 174.144897,565.204102 
	C179.984238,559.820801 184.938690,553.488342 190.603561,547.899414 
	C192.721298,545.810120 195.726074,544.619934 198.707794,543.041931 
	C192.767029,550.849365 186.444855,558.634644 179.986832,566.737549 
	C171.695251,574.119019 163.539536,581.182739 155.184097,588.497009 
z"/>
<path fill="#34D4DE" opacity="1.000000" stroke="none" 
	d="
M179.565247,492.953827 
	C179.118134,490.593475 179.074081,488.257507 179.538986,485.457397 
	C187.707840,484.987793 195.367752,484.982269 203.027649,484.976776 
	C203.033447,489.304596 203.039246,493.632416 202.995697,498.410522 
	C202.946350,498.860840 202.544983,498.888855 202.275833,498.637512 
	C201.810120,497.881165 201.613556,497.376160 201.416992,496.871185 
	C201.351974,492.328156 198.370102,490.745605 194.562714,490.992737 
	C189.675552,491.309937 184.831146,492.285980 179.565247,492.953827 
z"/>
<path fill="#EFCFAF" opacity="1.000000" stroke="none" 
	d="
M215.512634,517.960938 
	C215.945694,518.378723 215.995758,518.812195 216.083466,519.568665 
	C210.595795,521.957214 205.070465,524.022827 199.545135,526.088379 
	C199.336060,525.669250 199.126984,525.250122 198.917908,524.830994 
	C204.321808,522.546204 209.725708,520.261414 215.512634,517.960938 
z"/>
<path fill="#EFCFAF" opacity="1.000000" stroke="none" 
	d="
M201.018661,497.018066 
	C201.613556,497.376160 201.810120,497.881165 202.075241,498.652832 
	C195.748596,500.282257 189.353394,501.644989 182.958191,503.007751 
	C182.857880,502.598541 182.757584,502.189331 182.657272,501.780151 
	C188.644974,500.241760 194.632660,498.703369 201.018661,497.018066 
z"/>
<path fill="#EFCFAF" opacity="1.000000" stroke="none" 
	d="
M208.590881,507.000671 
	C208.744110,507.468719 208.508179,507.947510 208.188934,508.678528 
	C202.778046,510.623260 197.450470,512.315857 192.122894,514.008423 
	C191.953964,513.545837 191.785034,513.083252 191.616089,512.620728 
	C197.144638,510.750977 202.673172,508.881226 208.590881,507.000671 
z"/>
<path fill="#EFCFAF" opacity="1.000000" stroke="none" 
	d="
M201.721970,541.043335 
	C201.287964,541.710449 200.486465,542.356995 199.371460,543.052612 
	C199.823456,542.408691 200.588974,541.715698 201.721970,541.043335 
z"/>
<path fill="#EFCFAF" opacity="1.000000" stroke="none" 
	d="
M203.177094,540.945984 
	C202.913010,541.098083 202.485382,541.123169 202.271454,541.114868 
	C202.793503,540.402588 203.529465,539.698669 204.624176,538.988770 
	C204.469009,539.586487 203.955093,540.190186 203.177094,540.945984 
z"/>
<path fill="#EFCFAF" opacity="1.000000" stroke="none" 
	d="
M207.608246,536.975037 
	C207.181274,537.623596 206.404755,538.282166 205.305908,538.959839 
	C205.741943,538.314331 206.500320,537.649719 207.608246,536.975037 
z"/>
<path fill="#EFCFAF" opacity="1.000000" stroke="none" 
	d="
M211.600708,533.974121 
	C211.176315,534.621582 210.403259,535.282043 209.308167,535.965698 
	C209.741425,535.321594 210.496750,534.654358 211.600708,533.974121 
z"/>
<path fill="#EFCFAF" opacity="1.000000" stroke="none" 
	d="
M196.990692,527.237976 
	C197.102127,527.405823 197.047134,527.576294 196.992142,527.746765 
	C196.936188,527.578064 196.880219,527.409302 196.990692,527.237976 
z"/>
<path fill="#EFCFAF" opacity="1.000000" stroke="none" 
	d="
M186.744629,515.358032 
	C186.994080,515.372986 187.129639,515.505005 187.265182,515.637085 
	C187.053696,515.583130 186.842209,515.529114 186.744629,515.358032 
z"/>
<path fill="#EFCFAF" opacity="1.000000" stroke="none" 
	d="
M180.262024,503.643799 
	C180.010269,503.629089 179.873444,503.496216 179.736618,503.363342 
	C179.950073,503.417419 180.163528,503.471527 180.262024,503.643799 
z"/>
<path fill="#EFCFAF" opacity="1.000000" stroke="none" 
	d="
M189.446259,514.534058 
	C189.410172,514.476013 189.482361,514.592041 189.446259,514.534058 
z"/>
<path fill="#FCFCF0" opacity="1.000000" stroke="none" 
	d="
M225.786926,481.252411 
	C226.484619,478.971680 227.182312,476.690979 228.303482,473.958557 
	C230.893799,472.364014 233.060638,471.221161 235.681396,470.075684 
	C238.920578,470.088501 241.705841,470.103973 244.456940,470.578491 
	C244.382568,491.346344 244.342331,511.655121 244.302094,531.963928 
	C241.122955,532.006104 237.943817,532.048218 234.361176,532.114502 
	C228.803223,529.143616 224.819611,525.447754 225.898621,517.815308 
	C225.847672,505.031738 225.817291,493.142059 225.786926,481.252411 
z"/>
<path fill="#34D4DE" opacity="1.000000" stroke="none" 
	d="
M178.844070,463.726501 
	C178.910522,461.569794 178.988174,459.780640 179.086304,457.551086 
	C186.833618,457.110748 194.560455,457.110748 203.070786,457.110748 
	C203.070786,460.416351 203.070786,463.310211 202.543762,466.646729 
	C194.373322,467.072784 186.729935,467.056244 179.086533,467.039703 
	C179.009445,466.057831 178.932358,465.075928 178.844070,463.726501 
z"/>
<path fill="#312F2F" opacity="1.000000" stroke="none" 
	d="
M225.465942,481.327057 
	C225.817291,493.142059 225.847672,505.031738 225.850006,517.380005 
	C221.746872,517.462158 220.302002,514.912598 220.309372,511.164642 
	C220.319351,506.097290 220.330444,501.029907 220.302338,495.230743 
	C220.224564,494.314789 220.185486,494.130615 220.146393,493.946411 
	C220.212570,493.516357 220.278763,493.086273 220.246796,492.341034 
	C220.710464,487.965454 219.418854,483.033447 225.465942,481.327057 
z"/>
<path fill="#04A3B2" opacity="1.000000" stroke="none" 
	d="
M203.243256,484.705933 
	C195.367752,484.982269 187.707840,484.987793 179.589981,485.021027 
	C179.103439,482.972900 179.074860,480.897034 179.553558,478.398682 
	C187.739746,477.960114 195.418655,477.944031 203.097549,477.927917 
	C205.576385,479.966034 205.667191,482.136749 203.243256,484.705933 
z"/>
<path fill="#04A3B2" opacity="1.000000" stroke="none" 
	d="
M179.046112,467.476349 
	C186.729935,467.056244 194.373322,467.072784 202.481293,467.108917 
	C204.965820,469.118164 206.020981,471.219025 202.942123,473.875549 
	C194.510468,474.058777 186.840805,474.074890 179.171127,474.091034 
	C179.115982,472.031677 179.060837,469.972351 179.046112,467.476349 
z"/>
<path fill="#34D4DE" opacity="1.000000" stroke="none" 
	d="
M179.108734,474.472107 
	C186.840805,474.074890 194.510468,474.058777 202.657837,474.077332 
	C203.127869,475.129639 203.120178,476.147217 203.105026,477.546356 
	C195.418655,477.944031 187.739746,477.960114 179.603485,477.956299 
	C179.112854,476.908691 179.079590,475.880951 179.108734,474.472107 
z"/>
<path fill="#DDB1C3" opacity="1.000000" stroke="none" 
	d="
M219.957123,494.045593 
	C220.185486,494.130615 220.224564,494.314789 220.200348,494.774261 
	C219.935287,494.864807 219.720795,494.690735 219.546127,494.483124 
	C219.521225,494.453461 219.689178,494.261597 219.957123,494.045593 
z"/>
<path fill="#EFCFAF" opacity="1.000000" stroke="none" 
	d="
M258.894653,417.197144 
	C259.099365,411.589355 259.304077,405.981537 259.171570,400.095276 
	C259.234741,398.765961 259.635162,397.715057 260.455688,396.370483 
	C264.475342,398.430328 268.008240,400.894165 271.685791,403.118958 
	C290.327698,414.396301 309.100800,415.309235 327.963043,403.628479 
	C332.033905,401.107544 336.074066,398.536957 340.128387,395.989258 
	C340.673645,397.054993 341.218903,398.120728 341.966064,399.502502 
	C342.072083,405.373932 341.976135,410.929260 341.614227,417.147339 
	C341.602295,421.525940 341.856354,425.241821 341.819611,429.189331 
	C341.359192,430.647125 341.189514,431.873352 341.019867,433.099548 
	C327.838257,453.036743 314.656616,472.973938 300.774780,493.970215 
	C286.829529,473.066284 273.431305,452.982330 259.991394,432.201965 
	C259.615936,430.634674 259.282166,429.763763 258.971588,428.452850 
	C258.961426,424.407593 258.928040,420.802368 258.894653,417.197144 
z"/>
<path fill="#E2056F" opacity="1.000000" stroke="none" 
	d="
M352.584290,532.829590 
	C351.442993,537.484558 347.607849,535.956848 344.917450,535.588684 
	C343.731567,535.426453 342.115143,532.623535 342.056763,530.971252 
	C341.736664,521.912415 341.839172,512.838562 341.776794,503.027039 
	C341.709625,501.914124 341.662231,501.544067 341.704834,500.722412 
	C341.779144,497.824280 341.763428,495.377777 341.747742,492.931244 
	C341.777954,486.002319 341.724182,479.071320 341.898804,472.146027 
	C341.941254,470.462585 342.735382,468.798126 343.984070,466.905151 
	C347.578674,467.228851 351.464447,465.118073 352.356567,470.323242 
	C352.151367,486.845123 352.079681,502.913483 352.109161,518.981628 
	C352.117615,523.597900 352.417847,528.213623 352.584290,532.829590 
z"/>
<path fill="#E2056F" opacity="1.000000" stroke="none" 
	d="
M258.239807,493.464294 
	C258.240295,505.694611 258.303589,517.465820 258.023865,529.228821 
	C257.972839,531.373718 256.641815,535.218872 255.695343,535.284119 
	C252.958099,535.472717 250.115646,534.134277 247.411301,532.681885 
	C247.502945,511.354736 247.497803,490.741028 247.549469,469.696930 
	C249.802673,464.715485 253.723938,467.314209 256.945679,467.013397 
	C257.351044,469.887848 258.013000,472.753845 258.107666,475.638489 
	C258.297424,481.421051 258.177094,487.213776 258.239807,493.464294 
z"/>
<path fill="#D4ABBB" opacity="1.000000" stroke="none" 
	d="
M352.528564,469.869629 
	C351.464447,465.118073 347.578674,467.228851 344.339600,466.680359 
	C343.941772,462.701263 344.076355,458.725464 344.002045,454.753601 
	C343.958771,452.441254 344.347290,450.772247 348.043518,450.993469 
	C354.004150,451.353241 359.082977,451.710693 364.346985,452.424866 
	C364.891541,458.558044 365.250885,464.334473 365.610260,470.110870 
	C362.478607,470.089996 359.346954,470.069153 355.429962,470.023560 
	C353.939270,469.955750 353.233917,469.912689 352.528564,469.869629 
z"/>
<path fill="#D4ABBB" opacity="1.000000" stroke="none" 
	d="
M256.962219,466.546570 
	C253.723938,467.314209 249.802673,464.715485 247.257599,469.641541 
	C246.102966,470.050842 245.297028,470.085144 244.491104,470.119446 
	C241.705841,470.103973 238.920578,470.088501 235.639282,469.624634 
	C235.712967,463.472534 236.282700,457.768799 237.284088,452.051971 
	C243.136765,451.678802 248.557785,451.318787 253.978790,450.958740 
	C254.995117,452.057861 256.779205,453.086945 256.887085,454.269012 
	C257.243652,458.176147 256.995056,462.138550 256.962219,466.546570 
z"/>
<path fill="#DDB1C3" opacity="1.000000" stroke="none" 
	d="
M258.948395,428.892883 
	C259.282166,429.763763 259.615936,430.634674 259.948608,431.864594 
	C259.296967,432.792999 258.110138,433.336975 258.081818,433.935760 
	C257.879730,438.208679 258.125519,442.512207 257.734192,446.760437 
	C257.627258,447.921539 255.832748,448.927185 253.987198,449.938782 
	C247.772873,450.252197 242.384018,450.630981 236.988602,450.619385 
	C237.993729,447.146027 239.005432,444.063080 240.017136,440.980103 
	C241.590073,439.853333 243.465408,438.977478 244.660568,437.537231 
	C246.203918,435.677399 247.203522,433.366333 249.160904,431.122742 
	C252.905823,430.294922 255.927109,429.593903 258.948395,428.892883 
z"/>
<path fill="#DDB1C3" opacity="1.000000" stroke="none" 
	d="
M341.327148,432.951660 
	C341.189514,431.873352 341.359192,430.647125 342.213074,429.217651 
	C345.906281,429.665558 348.915222,430.316681 351.924164,430.967834 
	C353.340942,433.111603 354.618011,435.367828 356.222412,437.360535 
	C357.335114,438.742584 358.898621,439.761658 360.924408,441.187500 
	C362.324310,444.319214 363.060577,447.206329 363.377808,450.077515 
	C357.982178,450.048584 353.005585,450.035583 348.029022,450.022583 
	C345.189545,450.366730 343.815704,449.488464 343.867004,446.250885 
	C343.932190,442.141846 343.432281,438.019592 343.053223,433.914398 
	C343.015320,433.503998 342.127716,433.172058 341.327148,432.951660 
z"/>
<path fill="#B9D7EF" opacity="1.000000" stroke="none" 
	d="
M288.955383,580.034973 
	C287.971771,574.975037 286.988129,569.915100 285.987762,564.031860 
	C285.966064,561.829712 285.961090,560.450806 285.956116,559.071960 
	C285.984375,538.295410 285.969940,517.518494 286.128143,496.742920 
	C286.139801,495.209625 284.344299,491.887573 288.806824,493.195007 
	C289.013977,522.636841 288.984680,551.335938 288.955383,580.034973 
z"/>
<path fill="#B9D7EF" opacity="1.000000" stroke="none" 
	d="
M279.898499,530.894470 
	C278.587250,522.203979 277.276001,513.513550 275.927490,504.122528 
	C275.600372,502.964325 275.310486,502.506653 275.020630,502.048981 
	C274.650208,498.384216 274.279846,494.719482 273.869202,490.645081 
	C276.286224,490.235413 278.743439,490.235413 281.975372,490.235413 
	C281.975372,505.976501 281.975372,521.502930 281.946228,537.491455 
	C281.585571,536.235779 281.253998,534.517944 280.800903,532.162842 
	C280.419067,531.315125 280.158783,531.104797 279.898499,530.894470 
z"/>
<path fill="#FCFCF0" opacity="1.000000" stroke="none" 
	d="
M288.971558,580.461670 
	C288.984680,551.335938 289.013977,522.636841 289.066956,493.469849 
	C289.518005,493.003052 289.945343,493.004181 290.694092,493.010834 
	C290.988464,523.610413 290.966187,554.204468 290.922546,584.798584 
	C290.919952,586.615845 290.745728,588.432922 290.396545,590.548096 
	C289.757050,587.526794 289.372375,584.207581 288.971558,580.461670 
z"/>
<path fill="#DDB1C3" opacity="1.000000" stroke="none" 
	d="
M341.343811,492.956940 
	C341.763428,495.377777 341.779144,497.824280 341.287750,500.695129 
	C336.040833,501.449310 331.300964,501.779175 326.343353,502.124207 
	C326.598206,499.855469 326.758698,498.426788 326.919189,496.998108 
	C327.399109,490.733612 327.864288,490.415253 333.675903,491.751465 
	C336.065277,492.300781 338.516693,492.580353 341.343811,492.956940 
z"/>
<path fill="#83909B" opacity="1.000000" stroke="none" 
	d="
M305.800171,530.712769 
	C303.315918,531.361572 300.868805,532.370911 298.883026,531.793518 
	C297.678253,531.443298 296.438934,528.596313 296.533264,526.946411 
	C296.720703,523.666504 299.157837,521.979919 302.441467,522.320251 
	C305.950073,522.683899 307.313873,525.982361 305.800171,530.712769 
z"/>
<path fill="#83909B" opacity="1.000000" stroke="none" 
	d="
M304.713867,591.799316 
	C300.861786,593.894226 297.753632,592.847717 296.865723,589.291077 
	C296.407990,587.457581 298.090210,583.814270 299.728058,583.097778 
	C301.313965,582.404053 304.765991,583.847290 306.087921,585.439697 
	C306.946808,586.474426 305.458374,589.457703 304.713867,591.799316 
z"/>
<path fill="#83909B" opacity="1.000000" stroke="none" 
	d="
M304.683838,563.316284 
	C307.580200,566.132812 307.909363,569.214172 305.012146,571.267578 
	C303.461060,572.366821 299.854645,572.516479 298.526123,571.435364 
	C297.175110,570.335938 296.570557,566.844666 297.271423,565.031860 
	C298.424011,562.050659 301.366302,561.428955 304.683838,563.316284 
z"/>
<path fill="#83909B" opacity="1.000000" stroke="none" 
	d="
M305.295166,551.294312 
	C301.795227,553.899170 298.888000,553.312988 297.008331,550.008789 
	C295.369263,547.127563 296.248138,543.930359 299.398010,543.098145 
	C301.358734,542.580017 304.413513,543.745483 305.995819,545.213379 
	C306.884430,546.037781 305.775879,549.014954 305.295166,551.294312 
z"/>
<path fill="#83909B" opacity="1.000000" stroke="none" 
	d="
M301.200562,502.236877 
	C305.634766,502.976654 308.041290,505.317841 306.327423,509.409973 
	C305.653656,511.018677 302.759369,512.758972 301.070068,512.582642 
	C299.374115,512.405640 297.051666,510.161072 296.552002,508.386566 
	C295.691284,505.330048 297.689606,503.144012 301.200562,502.236877 
z"/>
<path fill="#B9D7EF" opacity="1.000000" stroke="none" 
	d="
M326.648865,496.717285 
	C326.758698,498.426788 326.598206,499.855469 326.343353,502.124207 
	C331.300964,501.779175 336.040833,501.449310 341.197754,501.146729 
	C341.662231,501.544067 341.709625,501.914124 341.685730,502.556152 
	C340.452972,502.865723 339.291748,502.912659 338.130066,502.939575 
	C322.587219,503.300018 326.013031,502.705963 323.367432,515.652588 
	C323.223419,507.563171 323.325073,499.194855 323.494965,490.827942 
	C323.499695,490.595490 324.235931,490.377869 325.383362,489.725861 
	C325.752777,492.216919 326.065643,494.326660 326.648865,496.717285 
z"/>
<path fill="#FEEAD2" opacity="1.000000" stroke="none" 
	d="
M285.736267,559.053223 
	C285.961090,560.450806 285.966064,561.829712 285.949493,563.625122 
	C277.303711,562.192871 268.840149,561.996277 260.129181,567.502441 
	C262.802277,563.619629 268.281372,561.252808 274.024170,561.085571 
	C276.481537,561.014038 278.965881,561.714355 281.415558,561.596741 
	C282.638397,561.538086 283.810760,560.428162 285.041168,559.397339 
	C285.076385,559.000916 285.516388,559.034424 285.736267,559.053223 
z"/>
<path fill="#FEEAD2" opacity="1.000000" stroke="none" 
	d="
M321.052795,530.313110 
	C327.387421,530.200012 333.697021,530.430786 340.006622,530.661621 
	C339.997650,531.112976 339.988708,531.564392 339.979736,532.015808 
	C333.986938,532.015808 327.994171,532.015808 321.541626,532.025513 
	C321.063873,531.575867 321.045807,531.116394 321.052795,530.313110 
z"/>
<path fill="#FEEAD2" opacity="1.000000" stroke="none" 
	d="
M348.022461,450.247620 
	C353.005585,450.035583 357.982178,450.048584 363.502686,450.394775 
	C364.085022,451.174713 364.123413,451.621399 364.161774,452.068115 
	C359.082977,451.710693 354.004150,451.353241 348.463470,450.959259 
	C348.001587,450.922729 348.015869,450.472687 348.022461,450.247620 
z"/>
<path fill="#FEEAD2" opacity="1.000000" stroke="none" 
	d="
M236.995178,451.009766 
	C242.384018,450.630981 247.772873,450.252197 253.565033,449.948120 
	C253.968369,450.022827 253.968262,450.491180 253.973526,450.724976 
	C248.557785,451.318787 243.136765,451.678802 237.258514,451.779816 
	C236.865906,451.350433 236.930542,451.180084 236.995178,451.009766 
z"/>
<path fill="#312F2F" opacity="1.000000" stroke="none" 
	d="
M244.456940,470.578491 
	C245.297028,470.085144 246.102966,470.050842 247.200775,470.071930 
	C247.497803,490.741028 247.502945,511.354736 247.342560,532.308105 
	C246.408646,532.489075 245.640305,532.330444 244.587036,532.067871 
	C244.342331,511.655121 244.382568,491.346344 244.456940,470.578491 
z"/>
<path fill="#FEEAD2" opacity="1.000000" stroke="none" 
	d="
M279.487732,530.906555 
	C280.158783,531.104797 280.419067,531.315125 280.753571,531.765625 
	C273.749603,532.005798 266.671417,532.005798 258.391571,532.005798 
	C265.959656,529.826843 272.449493,529.320618 279.487732,530.906555 
z"/>
<path fill="#FEEAD2" opacity="1.000000" stroke="none" 
	d="
M274.562134,502.039001 
	C275.310486,502.506653 275.600372,502.964325 275.882385,503.707581 
	C270.486298,503.493469 265.098053,502.993774 259.709808,502.494080 
	C259.709686,502.111511 259.709595,501.728912 259.709473,501.346313 
	C264.507538,501.573883 269.305603,501.801483 274.562134,502.039001 
z"/>
<path fill="#FCFCF0" opacity="1.000000" stroke="none" 
	d="
M316.041229,562.522583 
	C323.805267,560.477783 331.401276,560.338379 338.805695,564.743652 
	C334.548767,564.317200 330.081390,563.335815 325.567108,563.015076 
	C322.695404,562.811096 319.753998,563.587769 316.423431,563.925659 
	C316.013245,563.551880 316.023529,563.177185 316.041229,562.522583 
z"/>
<path fill="#FCFCF0" opacity="1.000000" stroke="none" 
	d="
M340.132629,566.287842 
	C341.220154,566.452881 342.467896,566.923096 343.869202,567.703857 
	C342.779449,567.540649 341.536163,567.066833 340.132629,566.287842 
z"/>
<path fill="#FCFCF0" opacity="1.000000" stroke="none" 
	d="
M339.047302,565.225952 
	C339.267883,565.152649 339.564362,565.336243 339.942627,565.772583 
	C339.724030,565.844421 339.423615,565.663574 339.047302,565.225952 
z"/>
<path fill="#FEE1BF" opacity="1.000000" stroke="none" 
	d="
M340.328796,395.672333 
	C336.074066,398.536957 332.033905,401.107544 327.963043,403.628479 
	C309.100800,415.309235 290.327698,414.396301 271.685791,403.118958 
	C268.008240,400.894165 264.475342,398.430328 260.539124,396.026794 
	C256.794617,392.432251 253.365112,388.908142 249.989517,385.333099 
	C248.631226,383.894592 247.391205,382.344391 246.115341,380.865906 
	C255.983994,369.427551 256.161713,360.160858 246.841888,344.537292 
	C248.237137,343.765167 249.707779,343.593597 251.178238,343.595306 
	C270.459106,343.617706 283.323761,334.078705 288.889526,315.759613 
	C289.477051,313.825775 290.761810,312.103699 291.715576,310.297607 
	C290.582306,308.599670 289.433594,306.878632 287.528442,304.024261 
	C296.799316,304.024261 304.814697,304.024261 313.995331,304.024261 
	C312.057831,307.001862 310.922058,308.747345 310.545013,309.326813 
	C314.922180,326.912323 323.559601,339.673798 341.851257,342.927063 
	C358.746307,345.931976 373.961243,339.252747 383.705750,324.794922 
	C385.490570,324.552368 387.251984,324.562653 388.372040,323.720215 
	C395.918549,318.044037 399.337250,310.203522 398.882141,300.938568 
	C398.646851,296.147949 397.908600,291.033905 392.480957,289.106110 
	C391.107330,290.246704 390.050568,291.124237 388.713501,291.818665 
	C384.231018,289.075653 380.334259,285.492523 375.774200,284.131073 
	C354.786285,277.864838 335.103912,281.032013 316.993408,293.632965 
	C315.158691,294.909546 312.573517,295.575745 310.301849,295.667755 
	C303.691284,295.935455 297.062561,295.812653 290.442200,295.734344 
	C289.041626,295.717773 287.313690,295.677521 286.299255,294.907196 
	C273.193909,284.955475 258.367126,280.627350 242.044556,280.975342 
	C250.074554,271.086945 260.871033,266.274628 273.178772,265.222076 
	C284.898102,264.219818 293.290833,259.327698 297.955566,248.279648 
	C302.447937,237.639847 310.687561,233.042084 322.170837,233.786926 
	C326.140259,234.044403 330.173218,233.959656 334.134399,233.582397 
	C344.510132,232.594147 353.891724,229.286041 360.857697,220.531998 
	C362.676147,225.294434 363.898376,229.770599 366.040955,233.751389 
	C368.222809,237.805054 370.681427,242.126740 374.129211,244.997467 
	C381.923187,251.486847 385.301819,260.082886 387.808594,269.324310 
	C388.972168,273.613922 389.952240,277.953339 391.024292,282.305786 
	C401.014435,285.267792 405.552032,291.815277 404.773834,303.307831 
	C403.732056,318.692017 397.367401,330.735168 382.348663,336.935516 
	C381.404083,337.325500 380.334106,338.184296 379.966858,339.087097 
	C371.110199,360.859589 357.936371,379.585999 340.328796,395.672333 
z"/>
<path fill="#FEEAD2" opacity="1.000000" stroke="none" 
	d="
M243.036285,338.433197 
	C229.531509,323.994171 227.433304,300.382660 239.108093,285.894745 
	C250.821350,284.632446 261.364899,286.354889 271.308899,291.106689 
	C277.626190,294.125488 282.012665,298.901489 282.952606,306.195038 
	C284.950867,321.700775 276.086517,334.852570 260.813843,337.851685 
	C255.071381,338.979340 248.972610,338.292694 243.036285,338.433197 
z"/>
<path fill="#7A100F" opacity="1.000000" stroke="none" 
	d="
M243.095276,338.741638 
	C248.972610,338.292694 255.071381,338.979340 260.813843,337.851685 
	C276.086517,334.852570 284.950867,321.700775 282.952606,306.195038 
	C282.012665,298.901489 277.626190,294.125488 271.308899,291.106689 
	C261.364899,286.354889 250.821350,284.632446 239.430801,285.734344 
	C239.836273,284.243317 240.647049,282.770874 241.751190,281.136871 
	C258.367126,280.627350 273.193909,284.955475 286.299255,294.907196 
	C287.313690,295.677521 289.041626,295.717773 290.442200,295.734344 
	C297.062561,295.812653 303.691284,295.935455 310.301849,295.667755 
	C312.573517,295.575745 315.158691,294.909546 316.993408,293.632965 
	C335.103912,281.032013 354.786285,277.864838 375.774200,284.131073 
	C380.334259,285.492523 384.231018,289.075653 388.806702,292.195343 
	C389.658630,295.139984 390.362762,297.504944 390.575470,299.913269 
	C391.383514,309.063538 386.676453,316.662811 383.385620,324.653259 
	C373.961243,339.252747 358.746307,345.931976 341.851257,342.927063 
	C323.559601,339.673798 314.922180,326.912323 310.545013,309.326813 
	C310.922058,308.747345 312.057831,307.001862 313.995331,304.024261 
	C304.814697,304.024261 296.799316,304.024261 287.528442,304.024261 
	C289.433594,306.878632 290.582306,308.599670 291.715576,310.297607 
	C290.761810,312.103699 289.477051,313.825775 288.889526,315.759613 
	C283.323761,334.078705 270.459106,343.617706 251.178238,343.595306 
	C249.707779,343.593597 248.237137,343.765167 246.539154,344.289917 
	C245.259247,342.832489 244.206741,340.941284 243.095276,338.741638 
M345.202332,286.362274 
	C341.365723,287.411774 337.431793,288.196472 333.712036,289.563873 
	C324.950745,292.784637 318.639801,298.438812 318.463196,308.411377 
	C318.281342,318.678467 321.206116,328.108032 330.365204,333.873840 
	C351.645996,347.270355 377.987579,336.179504 383.620422,311.756226 
	C386.260742,300.308105 382.419220,292.744232 371.563690,288.196289 
	C363.293091,284.731354 354.708099,284.943634 345.202332,286.362274 
z"/>
<path fill="#FBDBBB" opacity="1.000000" stroke="none" 
	d="
M216.724808,321.172607 
	C216.913605,321.700043 217.102402,322.227509 217.595734,323.213867 
	C218.250000,324.178528 218.599762,324.684296 218.949539,325.190033 
	C224.159546,334.587830 229.293991,344.028656 234.612015,353.364899 
	C237.197479,357.903900 239.713821,362.313477 236.375137,369.193085 
	C231.875305,360.907043 227.618378,353.720673 224.021286,346.217987 
	C221.571518,341.108368 219.007858,337.201660 213.403549,334.364929 
	C199.670303,327.413666 192.542938,307.671173 197.315125,292.952820 
	C198.813049,288.333008 201.393829,284.597168 207.165070,283.110291 
	C207.495392,284.830994 207.816772,286.505219 207.790070,288.726990 
	C197.308014,298.714996 202.105011,320.154938 215.502365,325.139465 
	C215.502365,323.049286 215.502365,320.972778 215.676849,319.184448 
	C216.142471,320.039337 216.433640,320.605957 216.724808,321.172607 
z"/>
<path fill="#EFCFAF" opacity="1.000000" stroke="none" 
	d="
M215.502365,318.896240 
	C215.502365,320.972778 215.502365,323.049286 215.502365,325.139465 
	C202.105011,320.154938 197.308014,298.714996 207.756744,289.126038 
	C209.047440,293.058746 210.023407,297.139923 211.001495,302.049469 
	C212.503220,308.217285 214.002792,313.556763 215.502365,318.896240 
z"/>
<path fill="#7A100F" opacity="1.000000" stroke="none" 
	d="
M215.676849,319.184448 
	C214.002792,313.556763 212.503220,308.217285 211.067627,302.459778 
	C213.192413,308.290039 215.253204,314.538391 217.019409,320.979675 
	C216.433640,320.605957 216.142471,320.039337 215.676849,319.184448 
z"/>
<path fill="#7A100F" opacity="1.000000" stroke="none" 
	d="
M218.924469,324.856018 
	C218.599762,324.684296 218.250000,324.178528 217.835861,323.361450 
	C218.147461,323.540771 218.523438,324.031403 218.924469,324.856018 
z"/>
<path fill="#E2056F" opacity="1.000000" stroke="none" 
	d="
M364.346985,452.424866 
	C364.123413,451.621399 364.085022,451.174713 363.921753,450.410706 
	C363.060577,447.206329 362.324310,444.319214 361.299866,441.205322 
	C363.093048,439.708252 365.174438,438.437958 367.601288,437.192139 
	C371.682129,449.129150 373.305603,461.317505 372.814148,474.227722 
	C370.617737,473.325989 368.330200,471.990417 365.826477,470.382874 
	C365.250885,464.334473 364.891541,458.558044 364.346985,452.424866 
z"/>
<path fill="#000000" opacity="1.000000" stroke="none" 
	d="
M351.863556,430.622192 
	C348.915222,430.316681 345.906281,429.665558 342.503845,428.986053 
	C341.856354,425.241821 341.602295,421.525940 341.638702,417.587189 
	C345.220398,421.668396 348.511688,425.972443 351.863556,430.622192 
z"/>
<path fill="#E2056F" opacity="1.000000" stroke="none" 
	d="
M236.988602,450.619385 
	C236.930542,451.180084 236.865906,451.350433 236.826843,451.792938 
	C236.282700,457.768799 235.712967,463.472534 235.185364,469.627289 
	C233.060638,471.221161 230.893799,472.364014 228.410248,473.577118 
	C228.138443,461.556885 229.100693,449.596344 233.111481,437.696594 
	C235.306183,438.336578 237.521942,439.350525 239.877426,440.672302 
	C239.005432,444.063080 237.993729,447.146027 236.988602,450.619385 
z"/>
<path fill="#000000" opacity="1.000000" stroke="none" 
	d="
M258.971588,428.452850 
	C255.927109,429.593903 252.905823,430.294922 249.480362,430.981628 
	C252.206726,426.539276 255.337250,422.111176 258.681213,417.440125 
	C258.928040,420.802368 258.961426,424.407593 258.971588,428.452850 
z"/>
<path fill="#312F2F" opacity="1.000000" stroke="none" 
	d="
M352.356567,470.323242 
	C353.233917,469.912689 353.939270,469.955750 355.003540,469.993652 
	C355.444672,490.340637 355.526855,510.692780 355.656006,531.510620 
	C354.835510,532.231201 353.968079,532.485962 352.842468,532.785156 
	C352.417847,528.213623 352.117615,523.597900 352.109161,518.981628 
	C352.079681,502.913483 352.151367,486.845123 352.356567,470.323242 
z"/>
<path fill="#EFCFAF" opacity="1.000000" stroke="none" 
	d="
M383.705750,324.794922 
	C386.676453,316.662811 391.383514,309.063538 390.575470,299.913269 
	C390.362762,297.504944 389.658630,295.139984 389.086975,292.378448 
	C390.050568,291.124237 391.107330,290.246704 392.480957,289.106110 
	C397.908600,291.033905 398.646851,296.147949 398.882141,300.938568 
	C399.337250,310.203522 395.918549,318.044037 388.372040,323.720215 
	C387.251984,324.562653 385.490570,324.552368 383.705750,324.794922 
z"/>
<path fill="#FEEAD2" opacity="1.000000" stroke="none" 
	d="
M345.628357,286.283508 
	C354.708099,284.943634 363.293091,284.731354 371.563690,288.196289 
	C382.419220,292.744232 386.260742,300.308105 383.620422,311.756226 
	C377.987579,336.179504 351.645996,347.270355 330.365204,333.873840 
	C321.206116,328.108032 318.281342,318.678467 318.463196,308.411377 
	C318.639801,298.438812 324.950745,292.784637 333.712036,289.563873 
	C337.431793,288.196472 341.365723,287.411774 345.628357,286.283508 
z"/>
</svg>